<svg width="800" height="889" viewBox="0 0 800 889" fill="none" xmlns="http://www.w3.org/2000/svg">
<g filter="url(#filter0_d_151_8)">
<path d="M268.118 669.909V699H264.083L249.297 677.665H249.027V699H244.637V669.909H248.7L263.501 691.273H263.771V669.909H268.118ZM283.37 699.44C281.324 699.44 279.539 698.972 278.015 698.034C276.49 697.097 275.306 695.785 274.463 694.099C273.621 692.414 273.199 690.444 273.199 688.19C273.199 685.927 273.621 683.948 274.463 682.253C275.306 680.558 276.49 679.241 278.015 678.304C279.539 677.366 281.324 676.898 283.37 676.898C285.415 676.898 287.2 677.366 288.725 678.304C290.249 679.241 291.433 680.558 292.276 682.253C293.119 683.948 293.54 685.927 293.54 688.19C293.54 690.444 293.119 692.414 292.276 694.099C291.433 695.785 290.249 697.097 288.725 698.034C287.2 698.972 285.415 699.44 283.37 699.44ZM283.384 695.875C284.71 695.875 285.808 695.525 286.679 694.824C287.551 694.123 288.194 693.19 288.611 692.026C289.037 690.861 289.25 689.578 289.25 688.176C289.25 686.784 289.037 685.506 288.611 684.341C288.194 683.167 287.551 682.224 286.679 681.514C285.808 680.804 284.71 680.449 283.384 680.449C282.049 680.449 280.941 680.804 280.06 681.514C279.189 682.224 278.54 683.167 278.114 684.341C277.697 685.506 277.489 686.784 277.489 688.176C277.489 689.578 277.697 690.861 278.114 692.026C278.54 693.19 279.189 694.123 280.06 694.824C280.941 695.525 282.049 695.875 283.384 695.875ZM308.867 699V677.182H312.972V680.648H313.199C313.597 679.473 314.298 678.55 315.301 677.878C316.315 677.196 317.461 676.855 318.739 676.855C319.004 676.855 319.317 676.865 319.676 676.884C320.046 676.902 320.335 676.926 320.543 676.955V681.017C320.373 680.97 320.069 680.918 319.634 680.861C319.198 680.795 318.763 680.761 318.327 680.761C317.323 680.761 316.428 680.974 315.642 681.401C314.866 681.817 314.25 682.4 313.796 683.148C313.341 683.886 313.114 684.729 313.114 685.676V699H308.867ZM332.841 699.44C330.691 699.44 328.84 698.981 327.287 698.062C325.743 697.134 324.55 695.832 323.707 694.156C322.874 692.471 322.457 690.496 322.457 688.233C322.457 685.998 322.874 684.028 323.707 682.324C324.55 680.619 325.724 679.289 327.23 678.332C328.745 677.376 330.516 676.898 332.542 676.898C333.773 676.898 334.967 677.101 336.122 677.509C337.277 677.916 338.314 678.555 339.233 679.426C340.151 680.297 340.876 681.429 341.406 682.821C341.936 684.204 342.201 685.884 342.201 687.864V689.369H324.858V686.188H338.039C338.039 685.07 337.812 684.08 337.358 683.219C336.903 682.348 336.264 681.661 335.44 681.159C334.626 680.657 333.669 680.406 332.571 680.406C331.377 680.406 330.336 680.7 329.446 681.287C328.565 681.865 327.883 682.622 327.4 683.56C326.927 684.488 326.69 685.496 326.69 686.585V689.071C326.69 690.529 326.946 691.77 327.457 692.793C327.978 693.815 328.702 694.597 329.63 695.136C330.558 695.667 331.643 695.932 332.883 695.932C333.688 695.932 334.422 695.818 335.085 695.591C335.748 695.354 336.321 695.004 336.804 694.54C337.287 694.076 337.656 693.503 337.912 692.821L341.931 693.545C341.609 694.729 341.032 695.766 340.199 696.656C339.375 697.537 338.338 698.223 337.088 698.716C335.847 699.199 334.431 699.44 332.841 699.44ZM363.263 682.509L359.414 683.19C359.253 682.698 358.997 682.229 358.647 681.784C358.306 681.339 357.842 680.974 357.255 680.69C356.667 680.406 355.934 680.264 355.053 680.264C353.85 680.264 352.846 680.534 352.042 681.074C351.237 681.604 350.834 682.291 350.834 683.134C350.834 683.863 351.104 684.45 351.644 684.895C352.184 685.34 353.055 685.705 354.257 685.989L357.723 686.784C359.731 687.248 361.227 687.963 362.212 688.929C363.197 689.895 363.689 691.15 363.689 692.693C363.689 694 363.31 695.165 362.553 696.188C361.805 697.201 360.758 697.996 359.414 698.574C358.078 699.152 356.53 699.44 354.769 699.44C352.326 699.44 350.332 698.92 348.789 697.878C347.245 696.827 346.298 695.335 345.948 693.403L350.053 692.778C350.309 693.848 350.834 694.658 351.63 695.207C352.425 695.747 353.462 696.017 354.74 696.017C356.132 696.017 357.245 695.728 358.078 695.151C358.912 694.563 359.328 693.848 359.328 693.006C359.328 692.324 359.073 691.751 358.561 691.287C358.06 690.823 357.288 690.473 356.246 690.236L352.553 689.426C350.517 688.962 349.011 688.223 348.036 687.21C347.07 686.197 346.587 684.914 346.587 683.361C346.587 682.073 346.947 680.946 347.667 679.98C348.386 679.014 349.381 678.261 350.65 677.722C351.918 677.172 353.372 676.898 355.01 676.898C357.368 676.898 359.224 677.409 360.578 678.432C361.933 679.445 362.828 680.804 363.263 682.509ZM382.18 689.952V677.182H386.441V699H382.265V695.222H382.038C381.536 696.386 380.731 697.357 379.623 698.134C378.525 698.901 377.156 699.284 375.518 699.284C374.117 699.284 372.876 698.976 371.797 698.361C370.726 697.736 369.884 696.812 369.268 695.591C368.662 694.369 368.359 692.859 368.359 691.06V677.182H372.606V690.548C372.606 692.035 373.018 693.219 373.842 694.099C374.666 694.98 375.736 695.42 377.052 695.42C377.848 695.42 378.638 695.222 379.424 694.824C380.22 694.426 380.878 693.825 381.399 693.02C381.929 692.215 382.19 691.192 382.18 689.952ZM396.395 669.909V699H392.148V669.909H396.395ZM412.294 677.182V680.591H400.376V677.182H412.294ZM403.572 671.955H407.819V692.594C407.819 693.418 407.942 694.038 408.189 694.455C408.435 694.862 408.752 695.141 409.14 695.293C409.538 695.435 409.969 695.506 410.433 695.506C410.774 695.506 411.072 695.482 411.328 695.435C411.583 695.387 411.782 695.349 411.924 695.321L412.691 698.83C412.445 698.924 412.095 699.019 411.64 699.114C411.186 699.218 410.618 699.275 409.936 699.284C408.818 699.303 407.777 699.104 406.811 698.688C405.845 698.271 405.064 697.627 404.467 696.756C403.87 695.884 403.572 694.791 403.572 693.474V671.955ZM432.99 682.509L429.14 683.19C428.979 682.698 428.724 682.229 428.373 681.784C428.032 681.339 427.568 680.974 426.981 680.69C426.394 680.406 425.66 680.264 424.779 680.264C423.577 680.264 422.573 680.534 421.768 681.074C420.963 681.604 420.561 682.291 420.561 683.134C420.561 683.863 420.831 684.45 421.37 684.895C421.91 685.34 422.781 685.705 423.984 685.989L427.45 686.784C429.458 687.248 430.954 687.963 431.939 688.929C432.923 689.895 433.416 691.15 433.416 692.693C433.416 694 433.037 695.165 432.279 696.188C431.531 697.201 430.485 697.996 429.14 698.574C427.805 699.152 426.257 699.44 424.495 699.44C422.052 699.44 420.059 698.92 418.515 697.878C416.972 696.827 416.025 695.335 415.674 693.403L419.779 692.778C420.035 693.848 420.561 694.658 421.356 695.207C422.152 695.747 423.189 696.017 424.467 696.017C425.859 696.017 426.972 695.728 427.805 695.151C428.638 694.563 429.055 693.848 429.055 693.006C429.055 692.324 428.799 691.751 428.288 691.287C427.786 690.823 427.014 690.473 425.973 690.236L422.279 689.426C420.243 688.962 418.738 688.223 417.762 687.21C416.797 686.197 416.314 684.914 416.314 683.361C416.314 682.073 416.673 680.946 417.393 679.98C418.113 679.014 419.107 678.261 420.376 677.722C421.645 677.172 423.099 676.898 424.737 676.898C427.095 676.898 428.951 677.409 430.305 678.432C431.659 679.445 432.554 680.804 432.99 682.509ZM459.055 677.182V680.591H446.725V677.182H459.055ZM450.106 699V674.653C450.106 673.29 450.404 672.158 451.001 671.259C451.598 670.349 452.388 669.672 453.373 669.227C454.358 668.773 455.428 668.545 456.583 668.545C457.436 668.545 458.165 668.616 458.771 668.759C459.377 668.891 459.827 669.014 460.12 669.128L459.126 672.565C458.927 672.509 458.672 672.442 458.359 672.366C458.047 672.281 457.668 672.239 457.223 672.239C456.19 672.239 455.452 672.494 455.007 673.006C454.571 673.517 454.353 674.256 454.353 675.222V699H450.106ZM471.768 699.44C469.723 699.44 467.938 698.972 466.413 698.034C464.888 697.097 463.705 695.785 462.862 694.099C462.019 692.414 461.598 690.444 461.598 688.19C461.598 685.927 462.019 683.948 462.862 682.253C463.705 680.558 464.888 679.241 466.413 678.304C467.938 677.366 469.723 676.898 471.768 676.898C473.814 676.898 475.599 677.366 477.123 678.304C478.648 679.241 479.832 680.558 480.674 682.253C481.517 683.948 481.939 685.927 481.939 688.19C481.939 690.444 481.517 692.414 480.674 694.099C479.832 695.785 478.648 697.097 477.123 698.034C475.599 698.972 473.814 699.44 471.768 699.44ZM471.782 695.875C473.108 695.875 474.207 695.525 475.078 694.824C475.949 694.123 476.593 693.19 477.01 692.026C477.436 690.861 477.649 689.578 477.649 688.176C477.649 686.784 477.436 685.506 477.01 684.341C476.593 683.167 475.949 682.224 475.078 681.514C474.207 680.804 473.108 680.449 471.782 680.449C470.447 680.449 469.339 680.804 468.458 681.514C467.587 682.224 466.939 683.167 466.512 684.341C466.096 685.506 465.887 686.784 465.887 688.176C465.887 689.578 466.096 690.861 466.512 692.026C466.939 693.19 467.587 694.123 468.458 694.824C469.339 695.525 470.447 695.875 471.782 695.875ZM500.5 689.952V677.182H504.762V699H500.586V695.222H500.358C499.856 696.386 499.051 697.357 497.944 698.134C496.845 698.901 495.477 699.284 493.838 699.284C492.437 699.284 491.196 698.976 490.117 698.361C489.047 697.736 488.204 696.812 487.588 695.591C486.982 694.369 486.679 692.859 486.679 691.06V677.182H490.926V690.548C490.926 692.035 491.338 693.219 492.162 694.099C492.986 694.98 494.056 695.42 495.373 695.42C496.168 695.42 496.959 695.222 497.745 694.824C498.54 694.426 499.198 693.825 499.719 693.02C500.249 692.215 500.51 691.192 500.5 689.952ZM514.716 686.045V699H510.468V677.182H514.545V680.733H514.815C515.317 679.578 516.103 678.65 517.173 677.949C518.252 677.248 519.611 676.898 521.25 676.898C522.736 676.898 524.038 677.21 525.156 677.835C526.273 678.451 527.14 679.369 527.755 680.591C528.371 681.812 528.679 683.323 528.679 685.122V699H524.431V685.634C524.431 684.052 524.02 682.816 523.196 681.926C522.372 681.027 521.24 680.577 519.801 680.577C518.816 680.577 517.94 680.79 517.173 681.216C516.415 681.642 515.814 682.267 515.369 683.091C514.933 683.905 514.716 684.89 514.716 686.045ZM542.542 699.426C540.781 699.426 539.209 698.976 537.826 698.077C536.453 697.168 535.374 695.875 534.588 694.199C533.811 692.513 533.423 690.491 533.423 688.134C533.423 685.776 533.816 683.759 534.602 682.082C535.397 680.406 536.486 679.123 537.869 678.233C539.252 677.343 540.819 676.898 542.571 676.898C543.925 676.898 545.014 677.125 545.838 677.58C546.671 678.025 547.315 678.545 547.77 679.142C548.234 679.739 548.593 680.264 548.849 680.719H549.105V669.909H553.352V699H549.204V695.605H548.849C548.593 696.069 548.224 696.599 547.741 697.196C547.268 697.793 546.614 698.313 545.781 698.759C544.948 699.204 543.868 699.426 542.542 699.426ZM543.48 695.804C544.701 695.804 545.734 695.482 546.576 694.838C547.429 694.185 548.073 693.28 548.508 692.125C548.953 690.97 549.176 689.625 549.176 688.091C549.176 686.576 548.958 685.25 548.522 684.114C548.087 682.977 547.448 682.092 546.605 681.457C545.762 680.823 544.72 680.506 543.48 680.506C542.201 680.506 541.136 680.837 540.284 681.5C539.431 682.163 538.788 683.067 538.352 684.213C537.926 685.359 537.713 686.652 537.713 688.091C537.713 689.549 537.931 690.861 538.366 692.026C538.802 693.19 539.446 694.114 540.298 694.795C541.16 695.468 542.22 695.804 543.48 695.804Z" fill="#333333"/>
<path d="M221.392 737.545V755H219.347L209.835 741.295H209.665V755H207.551V737.545H209.597L219.142 751.284H219.312V737.545H221.392ZM230.667 755.273C229.485 755.273 228.448 754.991 227.556 754.429C226.67 753.866 225.977 753.08 225.477 752.068C224.982 751.057 224.735 749.875 224.735 748.523C224.735 747.159 224.982 745.969 225.477 744.952C225.977 743.935 226.67 743.145 227.556 742.582C228.448 742.02 229.485 741.739 230.667 741.739C231.849 741.739 232.883 742.02 233.769 742.582C234.661 743.145 235.354 743.935 235.849 744.952C236.349 745.969 236.599 747.159 236.599 748.523C236.599 749.875 236.349 751.057 235.849 752.068C235.354 753.08 234.661 753.866 233.769 754.429C232.883 754.991 231.849 755.273 230.667 755.273ZM230.667 753.466C231.565 753.466 232.303 753.236 232.883 752.776C233.462 752.315 233.891 751.71 234.17 750.96C234.448 750.21 234.587 749.398 234.587 748.523C234.587 747.648 234.448 746.832 234.17 746.077C233.891 745.321 233.462 744.71 232.883 744.244C232.303 743.778 231.565 743.545 230.667 743.545C229.769 743.545 229.031 743.778 228.451 744.244C227.871 744.71 227.442 745.321 227.164 746.077C226.886 746.832 226.746 747.648 226.746 748.523C226.746 749.398 226.886 750.21 227.164 750.96C227.442 751.71 227.871 752.315 228.451 752.776C229.031 753.236 229.769 753.466 230.667 753.466ZM246.419 755V741.909H248.362V743.886H248.499C248.737 743.239 249.169 742.713 249.794 742.31C250.419 741.906 251.124 741.705 251.908 741.705C252.055 741.705 252.24 741.707 252.462 741.713C252.683 741.719 252.851 741.727 252.964 741.739V743.784C252.896 743.767 252.74 743.741 252.496 743.707C252.257 743.668 252.004 743.648 251.737 743.648C251.101 743.648 250.533 743.781 250.033 744.048C249.538 744.31 249.146 744.673 248.857 745.139C248.572 745.599 248.43 746.125 248.43 746.716V755H246.419ZM260.439 755.273C259.178 755.273 258.089 754.994 257.175 754.438C256.266 753.875 255.564 753.091 255.07 752.085C254.581 751.074 254.337 749.898 254.337 748.557C254.337 747.216 254.581 746.034 255.07 745.011C255.564 743.983 256.251 743.182 257.132 742.608C258.018 742.028 259.053 741.739 260.234 741.739C260.916 741.739 261.589 741.852 262.254 742.08C262.919 742.307 263.524 742.676 264.07 743.188C264.615 743.693 265.05 744.364 265.374 745.199C265.697 746.034 265.859 747.062 265.859 748.284V749.136H255.768V747.398H263.814C263.814 746.659 263.666 746 263.371 745.42C263.081 744.841 262.666 744.384 262.126 744.048C261.592 743.713 260.962 743.545 260.234 743.545C259.433 743.545 258.74 743.744 258.155 744.142C257.575 744.534 257.129 745.045 256.817 745.676C256.504 746.307 256.348 746.983 256.348 747.705V748.864C256.348 749.852 256.518 750.69 256.859 751.378C257.206 752.06 257.686 752.58 258.3 752.938C258.913 753.29 259.626 753.466 260.439 753.466C260.967 753.466 261.445 753.392 261.871 753.244C262.303 753.091 262.675 752.864 262.987 752.562C263.3 752.256 263.541 751.875 263.712 751.42L265.655 751.966C265.45 752.625 265.107 753.205 264.624 753.705C264.141 754.199 263.544 754.585 262.834 754.864C262.124 755.136 261.325 755.273 260.439 755.273ZM278.192 744.841L276.385 745.352C276.271 745.051 276.104 744.759 275.882 744.474C275.666 744.185 275.371 743.946 274.996 743.759C274.621 743.571 274.141 743.477 273.555 743.477C272.754 743.477 272.087 743.662 271.553 744.031C271.024 744.395 270.76 744.858 270.76 745.42C270.76 745.92 270.942 746.315 271.305 746.605C271.669 746.895 272.237 747.136 273.01 747.33L274.953 747.807C276.124 748.091 276.996 748.526 277.57 749.111C278.143 749.69 278.43 750.437 278.43 751.352C278.43 752.102 278.214 752.773 277.783 753.364C277.357 753.955 276.76 754.42 275.993 754.761C275.226 755.102 274.334 755.273 273.317 755.273C271.982 755.273 270.876 754.983 270.001 754.403C269.126 753.824 268.572 752.977 268.339 751.864L270.249 751.386C270.43 752.091 270.774 752.619 271.28 752.972C271.791 753.324 272.459 753.5 273.283 753.5C274.22 753.5 274.964 753.301 275.516 752.903C276.072 752.5 276.351 752.017 276.351 751.455C276.351 751 276.192 750.619 275.874 750.312C275.555 750 275.067 749.767 274.408 749.614L272.226 749.102C271.027 748.818 270.146 748.378 269.584 747.781C269.027 747.179 268.749 746.426 268.749 745.523C268.749 744.784 268.956 744.131 269.371 743.562C269.791 742.994 270.362 742.548 271.084 742.224C271.811 741.901 272.635 741.739 273.555 741.739C274.851 741.739 275.868 742.023 276.607 742.591C277.351 743.159 277.879 743.909 278.192 744.841ZM289.708 749.648V741.909H291.719V755H289.708V752.784H289.572C289.265 753.449 288.788 754.014 288.14 754.48C287.492 754.94 286.674 755.17 285.685 755.17C284.867 755.17 284.14 754.991 283.504 754.634C282.867 754.27 282.367 753.724 282.004 752.997C281.64 752.264 281.458 751.341 281.458 750.227V741.909H283.469V750.091C283.469 751.045 283.737 751.807 284.271 752.375C284.81 752.943 285.498 753.227 286.333 753.227C286.833 753.227 287.342 753.099 287.859 752.844C288.381 752.588 288.819 752.196 289.171 751.668C289.529 751.139 289.708 750.466 289.708 749.648ZM297.415 737.545V755H295.403V737.545H297.415ZM306.792 741.909V743.614H300.008V741.909H306.792ZM301.985 738.773H303.996V751.25C303.996 751.818 304.079 752.244 304.244 752.528C304.414 752.807 304.63 752.994 304.891 753.091C305.158 753.182 305.44 753.227 305.735 753.227C305.957 753.227 306.138 753.216 306.281 753.193C306.423 753.165 306.536 753.142 306.621 753.125L307.031 754.932C306.894 754.983 306.704 755.034 306.46 755.085C306.215 755.142 305.906 755.17 305.531 755.17C304.962 755.17 304.406 755.048 303.86 754.804C303.32 754.56 302.871 754.188 302.513 753.688C302.161 753.188 301.985 752.557 301.985 751.795V738.773ZM318.856 744.841L317.049 745.352C316.935 745.051 316.768 744.759 316.546 744.474C316.33 744.185 316.035 743.946 315.66 743.759C315.285 743.571 314.805 743.477 314.219 743.477C313.418 743.477 312.751 743.662 312.217 744.031C311.688 744.395 311.424 744.858 311.424 745.42C311.424 745.92 311.606 746.315 311.969 746.605C312.333 746.895 312.901 747.136 313.674 747.33L315.617 747.807C316.788 748.091 317.66 748.526 318.234 749.111C318.808 749.69 319.094 750.437 319.094 751.352C319.094 752.102 318.879 752.773 318.447 753.364C318.021 753.955 317.424 754.42 316.657 754.761C315.89 755.102 314.998 755.273 313.981 755.273C312.646 755.273 311.54 754.983 310.665 754.403C309.79 753.824 309.237 752.977 309.004 751.864L310.913 751.386C311.094 752.091 311.438 752.619 311.944 752.972C312.455 753.324 313.123 753.5 313.947 753.5C314.884 753.5 315.629 753.301 316.18 752.903C316.737 752.5 317.015 752.017 317.015 751.455C317.015 751 316.856 750.619 316.538 750.312C316.219 750 315.731 749.767 315.072 749.614L312.89 749.102C311.691 748.818 310.81 748.378 310.248 747.781C309.691 747.179 309.413 746.426 309.413 745.523C309.413 744.784 309.62 744.131 310.035 743.562C310.455 742.994 311.026 742.548 311.748 742.224C312.475 741.901 313.299 741.739 314.219 741.739C315.515 741.739 316.532 742.023 317.271 742.591C318.015 743.159 318.543 743.909 318.856 744.841ZM334.702 741.909V743.614H327.645V741.909H334.702ZM329.759 755V740.102C329.759 739.352 329.935 738.727 330.287 738.227C330.639 737.727 331.097 737.352 331.659 737.102C332.222 736.852 332.815 736.727 333.44 736.727C333.935 736.727 334.338 736.767 334.651 736.847C334.963 736.926 335.196 737 335.349 737.068L334.77 738.807C334.668 738.773 334.526 738.73 334.344 738.679C334.168 738.628 333.935 738.602 333.645 738.602C332.98 738.602 332.5 738.77 332.205 739.105C331.915 739.44 331.77 739.932 331.77 740.58V755H329.759ZM342.3 755.273C341.118 755.273 340.081 754.991 339.189 754.429C338.303 753.866 337.609 753.08 337.109 752.068C336.615 751.057 336.368 749.875 336.368 748.523C336.368 747.159 336.615 745.969 337.109 744.952C337.609 743.935 338.303 743.145 339.189 742.582C340.081 742.02 341.118 741.739 342.3 741.739C343.482 741.739 344.516 742.02 345.402 742.582C346.294 743.145 346.987 743.935 347.482 744.952C347.982 745.969 348.232 747.159 348.232 748.523C348.232 749.875 347.982 751.057 347.482 752.068C346.987 753.08 346.294 753.866 345.402 754.429C344.516 754.991 343.482 755.273 342.3 755.273ZM342.3 753.466C343.197 753.466 343.936 753.236 344.516 752.776C345.095 752.315 345.524 751.71 345.803 750.96C346.081 750.21 346.22 749.398 346.22 748.523C346.22 747.648 346.081 746.832 345.803 746.077C345.524 745.321 345.095 744.71 344.516 744.244C343.936 743.778 343.197 743.545 342.3 743.545C341.402 743.545 340.663 743.778 340.084 744.244C339.504 744.71 339.075 745.321 338.797 746.077C338.518 746.832 338.379 747.648 338.379 748.523C338.379 749.398 338.518 750.21 338.797 750.96C339.075 751.71 339.504 752.315 340.084 752.776C340.663 753.236 341.402 753.466 342.3 753.466ZM359.552 749.648V741.909H361.563V755H359.552V752.784H359.415C359.109 753.449 358.631 754.014 357.984 754.48C357.336 754.94 356.518 755.17 355.529 755.17C354.711 755.17 353.984 754.991 353.347 754.634C352.711 754.27 352.211 753.724 351.847 752.997C351.484 752.264 351.302 751.341 351.302 750.227V741.909H353.313V750.091C353.313 751.045 353.58 751.807 354.114 752.375C354.654 752.943 355.342 753.227 356.177 753.227C356.677 753.227 357.185 753.099 357.702 752.844C358.225 752.588 358.663 752.196 359.015 751.668C359.373 751.139 359.552 750.466 359.552 749.648ZM367.259 747.125V755H365.247V741.909H367.19V743.955H367.361C367.668 743.29 368.134 742.756 368.759 742.352C369.384 741.943 370.19 741.739 371.179 741.739C372.065 741.739 372.841 741.92 373.506 742.284C374.17 742.642 374.688 743.188 375.057 743.92C375.426 744.648 375.611 745.568 375.611 746.682V755H373.599V746.818C373.599 745.79 373.332 744.989 372.798 744.415C372.264 743.835 371.531 743.545 370.599 743.545C369.957 743.545 369.384 743.685 368.878 743.963C368.378 744.241 367.983 744.648 367.693 745.182C367.403 745.716 367.259 746.364 367.259 747.125ZM384.229 755.273C383.138 755.273 382.175 754.997 381.34 754.446C380.505 753.889 379.852 753.105 379.38 752.094C378.908 751.077 378.673 749.875 378.673 748.489C378.673 747.114 378.908 745.92 379.38 744.909C379.852 743.898 380.508 743.116 381.349 742.565C382.19 742.014 383.161 741.739 384.263 741.739C385.116 741.739 385.789 741.881 386.283 742.165C386.783 742.443 387.164 742.761 387.425 743.119C387.692 743.472 387.9 743.761 388.048 743.989H388.218V737.545H390.229V755H388.286V752.989H388.048C387.9 753.227 387.69 753.528 387.417 753.892C387.144 754.25 386.755 754.571 386.249 754.855C385.744 755.134 385.07 755.273 384.229 755.273ZM384.502 753.466C385.309 753.466 385.991 753.256 386.548 752.835C387.104 752.409 387.528 751.821 387.817 751.071C388.107 750.315 388.252 749.443 388.252 748.455C388.252 747.477 388.11 746.622 387.826 745.889C387.542 745.151 387.121 744.577 386.565 744.168C386.008 743.753 385.32 743.545 384.502 743.545C383.65 743.545 382.94 743.764 382.371 744.202C381.809 744.634 381.386 745.222 381.102 745.966C380.823 746.705 380.684 747.534 380.684 748.455C380.684 749.386 380.826 750.233 381.11 750.994C381.4 751.75 381.826 752.352 382.388 752.801C382.957 753.244 383.661 753.466 384.502 753.466ZM395.658 755.136C395.238 755.136 394.877 754.986 394.576 754.685C394.275 754.384 394.124 754.023 394.124 753.602C394.124 753.182 394.275 752.821 394.576 752.52C394.877 752.219 395.238 752.068 395.658 752.068C396.079 752.068 396.44 752.219 396.741 752.52C397.042 752.821 397.192 753.182 397.192 753.602C397.192 753.881 397.121 754.136 396.979 754.369C396.843 754.602 396.658 754.79 396.425 754.932C396.198 755.068 395.942 755.136 395.658 755.136ZM407.825 755V737.545H413.722C415.092 737.545 416.211 737.793 417.08 738.287C417.955 738.776 418.603 739.438 419.023 740.273C419.444 741.108 419.654 742.04 419.654 743.068C419.654 744.097 419.444 745.031 419.023 745.872C418.609 746.713 417.967 747.384 417.097 747.884C416.228 748.378 415.114 748.625 413.756 748.625H409.529V746.75H413.688C414.626 746.75 415.379 746.588 415.947 746.264C416.515 745.94 416.927 745.503 417.183 744.952C417.444 744.395 417.575 743.767 417.575 743.068C417.575 742.369 417.444 741.744 417.183 741.193C416.927 740.642 416.512 740.21 415.938 739.898C415.364 739.58 414.603 739.42 413.654 739.42H409.938V755H407.825ZM424.798 737.545V755H422.786V737.545H424.798ZM433.97 755.273C432.709 755.273 431.621 754.994 430.706 754.438C429.797 753.875 429.095 753.091 428.601 752.085C428.112 751.074 427.868 749.898 427.868 748.557C427.868 747.216 428.112 746.034 428.601 745.011C429.095 743.983 429.783 743.182 430.663 742.608C431.55 742.028 432.584 741.739 433.766 741.739C434.447 741.739 435.121 741.852 435.786 742.08C436.45 742.307 437.055 742.676 437.601 743.188C438.146 743.693 438.581 744.364 438.905 745.199C439.229 746.034 439.391 747.062 439.391 748.284V749.136H429.3V747.398H437.345C437.345 746.659 437.197 746 436.902 745.42C436.612 744.841 436.197 744.384 435.658 744.048C435.124 743.713 434.493 743.545 433.766 743.545C432.964 743.545 432.271 743.744 431.686 744.142C431.107 744.534 430.661 745.045 430.348 745.676C430.036 746.307 429.879 746.983 429.879 747.705V748.864C429.879 749.852 430.05 750.69 430.391 751.378C430.737 752.06 431.217 752.58 431.831 752.938C432.445 753.29 433.158 753.466 433.97 753.466C434.499 753.466 434.976 753.392 435.402 753.244C435.834 753.091 436.206 752.864 436.518 752.562C436.831 752.256 437.072 751.875 437.243 751.42L439.186 751.966C438.982 752.625 438.638 753.205 438.155 753.705C437.672 754.199 437.075 754.585 436.365 754.864C435.655 755.136 434.857 755.273 433.97 755.273ZM446.303 755.307C445.473 755.307 444.72 755.151 444.044 754.838C443.368 754.52 442.831 754.062 442.433 753.466C442.036 752.864 441.837 752.136 441.837 751.284C441.837 750.534 441.984 749.926 442.28 749.46C442.575 748.989 442.97 748.619 443.464 748.352C443.959 748.085 444.504 747.886 445.101 747.756C445.703 747.619 446.308 747.511 446.916 747.432C447.712 747.33 448.357 747.253 448.851 747.202C449.351 747.145 449.714 747.051 449.942 746.92C450.175 746.79 450.291 746.562 450.291 746.239V746.17C450.291 745.33 450.061 744.676 449.601 744.21C449.146 743.744 448.456 743.511 447.53 743.511C446.57 743.511 445.817 743.722 445.271 744.142C444.726 744.562 444.342 745.011 444.121 745.489L442.212 744.807C442.553 744.011 443.007 743.392 443.575 742.949C444.149 742.5 444.774 742.187 445.45 742.011C446.132 741.83 446.803 741.739 447.462 741.739C447.882 741.739 448.365 741.79 448.911 741.892C449.462 741.989 449.993 742.19 450.504 742.497C451.021 742.804 451.45 743.267 451.791 743.886C452.132 744.506 452.303 745.335 452.303 746.375V755H450.291V753.227H450.189C450.053 753.511 449.825 753.815 449.507 754.139C449.189 754.463 448.766 754.739 448.237 754.966C447.709 755.193 447.064 755.307 446.303 755.307ZM446.609 753.5C447.405 753.5 448.075 753.344 448.621 753.031C449.172 752.719 449.587 752.315 449.865 751.821C450.149 751.327 450.291 750.807 450.291 750.261V748.42C450.206 748.523 450.018 748.616 449.729 748.702C449.445 748.781 449.115 748.852 448.74 748.915C448.371 748.972 448.01 749.023 447.658 749.068C447.311 749.108 447.03 749.142 446.814 749.17C446.291 749.239 445.803 749.349 445.348 749.503C444.899 749.651 444.536 749.875 444.257 750.176C443.984 750.472 443.848 750.875 443.848 751.386C443.848 752.085 444.107 752.614 444.624 752.972C445.146 753.324 445.808 753.5 446.609 753.5ZM465.246 744.841L463.44 745.352C463.326 745.051 463.158 744.759 462.937 744.474C462.721 744.185 462.425 743.946 462.05 743.759C461.675 743.571 461.195 743.477 460.61 743.477C459.809 743.477 459.141 743.662 458.607 744.031C458.079 744.395 457.815 744.858 457.815 745.42C457.815 745.92 457.996 746.315 458.36 746.605C458.724 746.895 459.292 747.136 460.065 747.33L462.008 747.807C463.178 748.091 464.05 748.526 464.624 749.111C465.198 749.69 465.485 750.437 465.485 751.352C465.485 752.102 465.269 752.773 464.837 753.364C464.411 753.955 463.815 754.42 463.048 754.761C462.281 755.102 461.388 755.273 460.371 755.273C459.036 755.273 457.931 754.983 457.056 754.403C456.181 753.824 455.627 752.977 455.394 751.864L457.303 751.386C457.485 752.091 457.829 752.619 458.335 752.972C458.846 753.324 459.513 753.5 460.337 753.5C461.275 753.5 462.019 753.301 462.57 752.903C463.127 752.5 463.406 752.017 463.406 751.455C463.406 751 463.246 750.619 462.928 750.312C462.61 750 462.121 749.767 461.462 749.614L459.281 749.102C458.082 748.818 457.201 748.378 456.638 747.781C456.082 747.179 455.803 746.426 455.803 745.523C455.803 744.784 456.011 744.131 456.425 743.562C456.846 742.994 457.417 742.548 458.138 742.224C458.866 741.901 459.69 741.739 460.61 741.739C461.906 741.739 462.923 742.023 463.661 742.591C464.406 743.159 464.934 743.909 465.246 744.841ZM474.001 755.273C472.74 755.273 471.652 754.994 470.737 754.438C469.828 753.875 469.126 753.091 468.632 752.085C468.143 751.074 467.899 749.898 467.899 748.557C467.899 747.216 468.143 746.034 468.632 745.011C469.126 743.983 469.814 743.182 470.695 742.608C471.581 742.028 472.615 741.739 473.797 741.739C474.479 741.739 475.152 741.852 475.817 742.08C476.482 742.307 477.087 742.676 477.632 743.188C478.178 743.693 478.612 744.364 478.936 745.199C479.26 746.034 479.422 747.062 479.422 748.284V749.136H469.331V747.398H477.376C477.376 746.659 477.229 746 476.933 745.42C476.643 744.841 476.229 744.384 475.689 744.048C475.155 743.713 474.524 743.545 473.797 743.545C472.996 743.545 472.303 743.744 471.717 744.142C471.138 744.534 470.692 745.045 470.379 745.676C470.067 746.307 469.911 746.983 469.911 747.705V748.864C469.911 749.852 470.081 750.69 470.422 751.378C470.768 752.06 471.249 752.58 471.862 752.938C472.476 753.29 473.189 753.466 474.001 753.466C474.53 753.466 475.007 753.392 475.433 753.244C475.865 753.091 476.237 752.864 476.55 752.562C476.862 752.256 477.104 751.875 477.274 751.42L479.217 751.966C479.013 752.625 478.669 753.205 478.186 753.705C477.703 754.199 477.107 754.585 476.396 754.864C475.686 755.136 474.888 755.273 474.001 755.273ZM494.925 741.909V743.614H488.141V741.909H494.925ZM490.118 738.773H492.129V751.25C492.129 751.818 492.212 752.244 492.376 752.528C492.547 752.807 492.763 752.994 493.024 753.091C493.291 753.182 493.572 753.227 493.868 753.227C494.089 753.227 494.271 753.216 494.413 753.193C494.555 753.165 494.669 753.142 494.754 753.125L495.163 754.932C495.027 754.983 494.837 755.034 494.592 755.085C494.348 755.142 494.038 755.17 493.663 755.17C493.095 755.17 492.538 755.048 491.993 754.804C491.453 754.56 491.004 754.188 490.646 753.688C490.294 753.188 490.118 752.557 490.118 751.795V738.773ZM497.95 755V741.909H499.893V743.886H500.03C500.268 743.239 500.7 742.713 501.325 742.31C501.95 741.906 502.655 741.705 503.439 741.705C503.587 741.705 503.771 741.707 503.993 741.713C504.214 741.719 504.382 741.727 504.496 741.739V743.784C504.428 743.767 504.271 743.741 504.027 743.707C503.788 743.668 503.536 743.648 503.268 743.648C502.632 743.648 502.064 743.781 501.564 744.048C501.07 744.31 500.678 744.673 500.388 745.139C500.104 745.599 499.962 746.125 499.962 746.716V755H497.95ZM508.574 759.909C508.233 759.909 507.929 759.881 507.662 759.824C507.395 759.773 507.21 759.722 507.108 759.67L507.619 757.898C508.108 758.023 508.54 758.068 508.915 758.034C509.29 758 509.622 757.832 509.912 757.531C510.207 757.236 510.477 756.756 510.722 756.091L511.097 755.068L506.256 741.909H508.438L512.051 752.341H512.188L515.801 741.909H517.983L512.426 756.909C512.176 757.585 511.866 758.145 511.497 758.588C511.128 759.037 510.699 759.369 510.21 759.585C509.727 759.801 509.182 759.909 508.574 759.909ZM531.24 755.307C530.411 755.307 529.658 755.151 528.982 754.838C528.305 754.52 527.768 754.062 527.371 753.466C526.973 752.864 526.774 752.136 526.774 751.284C526.774 750.534 526.922 749.926 527.217 749.46C527.513 748.989 527.908 748.619 528.402 748.352C528.896 748.085 529.442 747.886 530.038 747.756C530.641 747.619 531.246 747.511 531.854 747.432C532.649 747.33 533.294 747.253 533.788 747.202C534.288 747.145 534.652 747.051 534.879 746.92C535.112 746.79 535.229 746.562 535.229 746.239V746.17C535.229 745.33 534.999 744.676 534.538 744.21C534.084 743.744 533.393 743.511 532.467 743.511C531.507 743.511 530.754 743.722 530.209 744.142C529.663 744.562 529.28 745.011 529.058 745.489L527.149 744.807C527.49 744.011 527.945 743.392 528.513 742.949C529.087 742.5 529.712 742.187 530.388 742.011C531.07 741.83 531.74 741.739 532.399 741.739C532.82 741.739 533.303 741.79 533.848 741.892C534.399 741.989 534.93 742.19 535.442 742.497C535.959 742.804 536.388 743.267 536.729 743.886C537.07 744.506 537.24 745.335 537.24 746.375V755H535.229V753.227H535.126C534.99 753.511 534.763 753.815 534.445 754.139C534.126 754.463 533.703 754.739 533.175 754.966C532.646 755.193 532.001 755.307 531.24 755.307ZM531.547 753.5C532.342 753.5 533.013 753.344 533.558 753.031C534.109 752.719 534.524 752.315 534.803 751.821C535.087 751.327 535.229 750.807 535.229 750.261V748.42C535.143 748.523 534.956 748.616 534.666 748.702C534.382 748.781 534.053 748.852 533.678 748.915C533.308 748.972 532.947 749.023 532.595 749.068C532.249 749.108 531.967 749.142 531.751 749.17C531.229 749.239 530.74 749.349 530.286 749.503C529.837 749.651 529.473 749.875 529.195 750.176C528.922 750.472 528.786 750.875 528.786 751.386C528.786 752.085 529.044 752.614 529.561 752.972C530.084 753.324 530.746 753.5 531.547 753.5ZM546.195 760.182C545.224 760.182 544.388 760.057 543.69 759.807C542.991 759.562 542.408 759.239 541.942 758.835C541.482 758.438 541.116 758.011 540.843 757.557L542.445 756.432C542.627 756.67 542.857 756.943 543.136 757.25C543.414 757.562 543.795 757.832 544.278 758.06C544.766 758.293 545.406 758.409 546.195 758.409C547.252 758.409 548.124 758.153 548.812 757.642C549.499 757.131 549.843 756.33 549.843 755.239V752.58H549.673C549.525 752.818 549.315 753.114 549.042 753.466C548.775 753.812 548.388 754.122 547.883 754.395C547.383 754.662 546.707 754.795 545.854 754.795C544.798 754.795 543.849 754.545 543.008 754.045C542.173 753.545 541.511 752.818 541.022 751.864C540.539 750.909 540.298 749.75 540.298 748.386C540.298 747.045 540.533 745.878 541.005 744.884C541.477 743.884 542.133 743.111 542.974 742.565C543.815 742.014 544.786 741.739 545.888 741.739C546.741 741.739 547.417 741.881 547.917 742.165C548.423 742.443 548.809 742.761 549.076 743.119C549.349 743.472 549.559 743.761 549.707 743.989H549.911V741.909H551.854V755.375C551.854 756.5 551.599 757.415 551.087 758.119C550.582 758.83 549.9 759.349 549.042 759.679C548.19 760.014 547.241 760.182 546.195 760.182ZM546.127 752.989C546.934 752.989 547.616 752.804 548.173 752.435C548.729 752.065 549.153 751.534 549.442 750.841C549.732 750.148 549.877 749.318 549.877 748.352C549.877 747.409 549.735 746.577 549.451 745.855C549.167 745.134 548.746 744.568 548.19 744.159C547.633 743.75 546.945 743.545 546.127 743.545C545.275 743.545 544.565 743.761 543.996 744.193C543.434 744.625 543.011 745.205 542.727 745.932C542.448 746.659 542.309 747.466 542.309 748.352C542.309 749.261 542.451 750.065 542.735 750.764C543.025 751.457 543.451 752.003 544.013 752.401C544.582 752.793 545.286 752.989 546.127 752.989ZM559.388 755.307C558.559 755.307 557.806 755.151 557.13 754.838C556.454 754.52 555.917 754.062 555.519 753.466C555.121 752.864 554.923 752.136 554.923 751.284C554.923 750.534 555.07 749.926 555.366 749.46C555.661 748.989 556.056 748.619 556.55 748.352C557.045 748.085 557.59 747.886 558.187 747.756C558.789 747.619 559.394 747.511 560.002 747.432C560.798 747.33 561.442 747.253 561.937 747.202C562.437 747.145 562.8 747.051 563.028 746.92C563.261 746.79 563.377 746.562 563.377 746.239V746.17C563.377 745.33 563.147 744.676 562.687 744.21C562.232 743.744 561.542 743.511 560.616 743.511C559.656 743.511 558.903 743.722 558.357 744.142C557.812 744.562 557.428 745.011 557.207 745.489L555.298 744.807C555.638 744.011 556.093 743.392 556.661 742.949C557.235 742.5 557.86 742.187 558.536 742.011C559.218 741.83 559.888 741.739 560.548 741.739C560.968 741.739 561.451 741.79 561.996 741.892C562.548 741.989 563.079 742.19 563.59 742.497C564.107 742.804 564.536 743.267 564.877 743.886C565.218 744.506 565.388 745.335 565.388 746.375V755H563.377V753.227H563.275C563.138 753.511 562.911 753.815 562.593 754.139C562.275 754.463 561.852 754.739 561.323 754.966C560.795 755.193 560.15 755.307 559.388 755.307ZM559.695 753.5C560.491 753.5 561.161 753.344 561.707 753.031C562.258 752.719 562.673 752.315 562.951 751.821C563.235 751.327 563.377 750.807 563.377 750.261V748.42C563.292 748.523 563.104 748.616 562.815 748.702C562.531 748.781 562.201 748.852 561.826 748.915C561.457 748.972 561.096 749.023 560.744 749.068C560.397 749.108 560.116 749.142 559.9 749.17C559.377 749.239 558.888 749.349 558.434 749.503C557.985 749.651 557.621 749.875 557.343 750.176C557.07 750.472 556.934 750.875 556.934 751.386C556.934 752.085 557.192 752.614 557.71 752.972C558.232 753.324 558.894 753.5 559.695 753.5ZM569.06 755V741.909H571.071V755H569.06ZM570.082 739.727C569.69 739.727 569.352 739.594 569.068 739.327C568.79 739.06 568.651 738.739 568.651 738.364C568.651 737.989 568.79 737.668 569.068 737.401C569.352 737.134 569.69 737 570.082 737C570.474 737 570.81 737.134 571.088 737.401C571.372 737.668 571.514 737.989 571.514 738.364C571.514 738.739 571.372 739.06 571.088 739.327C570.81 739.594 570.474 739.727 570.082 739.727ZM576.766 747.125V755H574.755V741.909H576.698V743.955H576.869C577.175 743.29 577.641 742.756 578.266 742.352C578.891 741.943 579.698 741.739 580.687 741.739C581.573 741.739 582.349 741.92 583.013 742.284C583.678 742.642 584.195 743.188 584.565 743.92C584.934 744.648 585.119 745.568 585.119 746.682V755H583.107V746.818C583.107 745.79 582.84 744.989 582.306 744.415C581.772 743.835 581.039 743.545 580.107 743.545C579.465 743.545 578.891 743.685 578.386 743.963C577.886 744.241 577.491 744.648 577.201 745.182C576.911 745.716 576.766 746.364 576.766 747.125ZM590.26 755.136C589.839 755.136 589.479 754.986 589.178 754.685C588.876 754.384 588.726 754.023 588.726 753.602C588.726 753.182 588.876 752.821 589.178 752.52C589.479 752.219 589.839 752.068 590.26 752.068C590.68 752.068 591.041 752.219 591.342 752.52C591.643 752.821 591.794 753.182 591.794 753.602C591.794 753.881 591.723 754.136 591.581 754.369C591.445 754.602 591.26 754.79 591.027 754.932C590.8 755.068 590.544 755.136 590.26 755.136Z" fill="#333333" fill-opacity="0.7"/>
<circle cx="397.5" cy="389.5" r="175.5" fill="#FFFCF5"/>
<circle cx="233" cy="271" r="11" fill="#FFFCF5"/>
<circle cx="522.5" cy="199.5" r="20.5" fill="#FFFCF5"/>
<circle cx="236.5" cy="502.5" r="19.5" fill="#FFFCF5"/>
<circle cx="585.5" cy="483.5" r="19.5" fill="#FFFCF5"/>
<circle cx="547.5" cy="505.5" r="9.5" fill="#FFFCF5"/>
<path d="M594.659 423.331L597.721 437.798L611.982 440.905L597.721 444.011L594.659 458.479L591.596 444.011L577.336 440.905L591.596 437.798L594.659 423.331Z" fill="white"/>
<path d="M576.345 275.622C576.568 274.565 578.078 274.565 578.301 275.622L580.251 284.835C580.333 285.22 580.633 285.521 581.017 285.605L590.161 287.597C591.21 287.826 591.21 289.323 590.161 289.551L581.017 291.543C580.633 291.627 580.333 291.928 580.251 292.313L578.301 301.526C578.078 302.583 576.568 302.583 576.345 301.526L574.395 292.313C574.313 291.928 574.014 291.627 573.629 291.543L564.485 289.551C563.436 289.323 563.436 287.826 564.485 287.597L573.629 285.605C574.014 285.521 574.313 285.22 574.395 284.835L576.345 275.622Z" fill="#FDECCB"/>
<path d="M213.223 396.622C213.447 395.565 214.956 395.565 215.18 396.622L218.522 412.415C218.604 412.799 218.903 413.101 219.288 413.185L234.917 416.589C235.967 416.818 235.967 418.315 234.917 418.544L219.288 421.948C218.903 422.032 218.604 422.334 218.522 422.718L215.18 438.511C214.956 439.568 213.447 439.568 213.223 438.511L209.88 422.718C209.799 422.334 209.499 422.032 209.115 421.948L193.485 418.544C192.436 418.315 192.436 416.818 193.485 416.589L209.115 413.185C209.499 413.101 209.799 412.799 209.88 412.415L213.223 396.622Z" fill="#FDECCB"/>
<path d="M275.525 228.537C274.945 228.414 274.945 227.586 275.525 227.463L284.291 225.599C284.502 225.554 284.667 225.389 284.713 225.178L286.601 216.474C286.726 215.897 287.549 215.897 287.674 216.474L289.561 225.178C289.607 225.389 289.772 225.554 289.983 225.599L298.749 227.463C299.329 227.586 299.329 228.414 298.749 228.537L289.983 230.401C289.772 230.446 289.607 230.611 289.561 230.822L287.674 239.526C287.549 240.103 286.726 240.103 286.601 239.526L284.713 230.822C284.667 230.611 284.502 230.446 284.291 230.401L275.525 228.537Z" fill="#FDECCB"/>
<circle cx="434" cy="325" r="111" fill="#FDECCB" stroke="#E6A728" stroke-width="4"/>
<circle cx="434" cy="325" r="93" fill="#FFFCF5" stroke="#E6A728" stroke-width="4"/>
<path d="M289.243 530.626L349.236 447.304L351.902 445.304L357.901 443.971H366.567L371.233 447.304L375.899 449.303L379.899 453.969L383.232 461.302L331.238 559.289L325.239 562.622H317.906L307.908 559.289L299.909 555.956L292.576 545.958L289.243 541.958V530.626Z" fill="#FDECCB" stroke="#E6A728" stroke-width="4"/>
<path d="M394.564 429.306L379.355 453.969" stroke="#E6A728" stroke-width="4"/>
<path d="M376.688 421.307L362.024 443.304" stroke="#E6A728" stroke-width="4"/>
<path d="M353.235 443.971L288.577 532.626" stroke="#E6A728" stroke-width="4"/>
<path d="M382.565 459.968L330.572 560.622" stroke="#E6A728" stroke-width="4"/>
<path d="M351.902 445.304L353 444.693C355.4 443.356 358.159 442.804 360.889 443.113V443.113C362.003 443.24 363.097 443.508 364.144 443.912L366.023 444.637L366.656 444.848C370.185 446.024 373.391 448.006 376.022 450.636V450.636L378.089 452.704C378.93 453.544 379.664 454.484 380.275 455.504V455.504C380.991 456.696 381.532 457.986 381.881 459.332L382.565 461.968" stroke="#E6A728" stroke-width="4"/>
<path d="M331.905 559.289L329.066 560.566C326.315 561.803 323.349 562.489 320.335 562.583V562.583C317.994 562.657 315.656 562.373 313.4 561.742L311.488 561.207L310.847 560.989C305.18 559.066 300.019 555.891 295.748 551.7V551.7L293.278 549.277C291.348 547.382 289.901 545.052 289.059 542.481V542.481C288.013 539.283 287.946 535.845 288.868 532.609L289.243 531.293" stroke="#E6A728" stroke-width="4"/>
</g>
<defs>
<filter id="filter0_d_151_8" x="-110" y="-16" width="1020" height="1020" filterUnits="userSpaceOnUse" color-interpolation-filters="sRGB">
<feFlood flood-opacity="0" result="BackgroundImageFix"/>
<feColorMatrix in="SourceAlpha" type="matrix" values="0 0 0 0 0 0 0 0 0 0 0 0 0 0 0 0 0 0 127 0" result="hardAlpha"/>
<feOffset dy="18"/>
<feGaussianBlur stdDeviation="55"/>
<feComposite in2="hardAlpha" operator="out"/>
<feColorMatrix type="matrix" values="0 0 0 0 0.816667 0 0 0 0 0.816667 0 0 0 0 0.816667 0 0 0 0.47 0"/>
<feBlend mode="normal" in2="BackgroundImageFix" result="effect1_dropShadow_151_8"/>
<feBlend mode="normal" in="SourceGraphic" in2="effect1_dropShadow_151_8" result="shape"/>
</filter>
</defs>
</svg>
